# xmcd
#
# Track frame offsets:
#	150
#	21835
#	38890
#	54045
#	69972
#	91220
#	102897
#	116642
#	134972
#	150557
#	175117
#	191040
#	207260
#	222452
#
# Disc length: 2995 seconds
#
# Revision: 1
# Processed by: cddbd v1.5.1PL0 Copyright (c) Steve Scherf et al.
# Submitted via: audiograbber 1.83.01
#
DISCID=c30bb10e
DTITLE=Nashville Rebels - and Friends
DYEAR=1992
DGENRE=Honky Tonk
TTITLE0=Honky Tonker
TTITLE1=A Guitar Called Dixie
TTITLE2=Tonight I Think I`m gonna ...
TTITLE3=My Love
TTITLE4=There`s A Burnout
TTITLE5=Pikeville
TTITLE6=Dream Woman
TTITLE7=They call me Hillbilly
TTITLE8=My broken Heart
TTITLE9=Amazing Grace
TTITLE10=Keep playing that Music
TTITLE11=Thank God I`m a Truck Drivin`Man
TTITLE12=You`re bad
TTITLE13=Mercy
EXTD=
EXTT0=
EXTT1=
EXTT2=
EXTT3=
EXTT4=
EXTT5=
EXTT6=
EXTT7=
EXTT8=
EXTT9=
EXTT10=
EXTT11=
EXTT12=
EXTT13=
PLAYORDER=
